<svg width="38" height="38" viewBox="0 0 38 38" fill="none" xmlns="http://www.w3.org/2000/svg">
<g filter="url(#filter0_i_1_21982)">
<rect width="38" height="38" rx="8" fill="#1C64F2"/>
<rect x="0.5" y="0.5" width="37" height="37" rx="7.5" stroke="#313E62"/>
<path d="M19 20.5V18.25M19 18.25V16M19 18.25H16.75M19 18.25H21.25M15.3427 24.0259L14.1997 24.9402C13.5756 25.4396 13.2634 25.6893 13.0007 25.6896C12.7723 25.6898 12.5563 25.586 12.4138 25.4075C12.25 25.2022 12.25 24.8027 12.25 24.0034V15.4001C12.25 14.5601 12.25 14.1397 12.4135 13.8189C12.5573 13.5366 12.7866 13.3073 13.0689 13.1635C13.3897 13 13.8101 13 14.6502 13H23.3501C24.1902 13 24.6101 13 24.9309 13.1635C25.2132 13.3073 25.4429 13.5366 25.5866 13.8189C25.75 14.1394 25.75 14.5592 25.75 15.3977V21.1027C25.75 21.9411 25.75 22.3604 25.5866 22.6809C25.4429 22.9631 25.2132 23.1929 24.931 23.3366C24.6105 23.5 24.1911 23.5 23.3527 23.5H16.8419C16.5299 23.5 16.3737 23.5 16.2245 23.5306C16.0921 23.5578 15.9641 23.6026 15.8438 23.6641C15.7086 23.7331 15.5872 23.8302 15.3454 24.0236L15.3427 24.0259Z" stroke="white" stroke-width="1.5" stroke-linecap="round" stroke-linejoin="round"/>
</g>
<defs>
<filter id="filter0_i_1_21982" x="0" y="0" width="38" height="39" filterUnits="userSpaceOnUse" color-interpolation-filters="sRGB">
<feFlood flood-opacity="0" result="BackgroundImageFix"/>
<feBlend mode="normal" in="SourceGraphic" in2="BackgroundImageFix" result="shape"/>
<feColorMatrix in="SourceAlpha" type="matrix" values="0 0 0 0 0 0 0 0 0 0 0 0 0 0 0 0 0 0 127 0" result="hardAlpha"/>
<feOffset dy="1"/>
<feGaussianBlur stdDeviation="0.5"/>
<feComposite in2="hardAlpha" operator="arithmetic" k2="-1" k3="1"/>
<feColorMatrix type="matrix" values="0 0 0 0 1 0 0 0 0 1 0 0 0 0 1 0 0 0 0.4 0"/>
<feBlend mode="normal" in2="shape" result="effect1_innerShadow_1_21982"/>
</filter>
</defs>
</svg>
